<?xml version="1.0" encoding="UTF-8"?>
<svg width="991px" height="988px" viewBox="0 0 991 988" version="1.1" xmlns="http://www.w3.org/2000/svg" xmlns:xlink="http://www.w3.org/1999/xlink">
    <!-- Generator: Sketch 51.2 (57519) - http://www.bohemiancoding.com/sketch -->
    <title>icon</title>
    <desc>Created with Sketch.</desc>
    <defs>
        <ellipse id="path-1" cx="494.876444" cy="493.226667" rx="494.876444" ry="493.226667"></ellipse>
        <linearGradient x1="30.41%" y1="26.181%" x2="87.592%" y2="86.514%" id="linearGradient-3">
            <stop stop-color="#262626" stop-opacity="0.2" offset="0%"></stop>
            <stop stop-color="#262626" stop-opacity="0.02" offset="100%"></stop>
        </linearGradient>
        <radialGradient cx="22.6506373%" cy="13.068%" fx="22.6506373%" fy="13.068%" r="379.271998%" gradientTransform="translate(0.226506,0.130680),scale(0.996666,1.000000),translate(-0.226506,-0.130680)" id="radialGradient-4">
            <stop stop-color="#FFFFFF" stop-opacity="0.1" offset="0%"></stop>
            <stop stop-color="#FFFFFF" stop-opacity="0" offset="100%"></stop>
        </radialGradient>
    </defs>
    <g id="Page-1" stroke="none" stroke-width="1" fill="none" fill-rule="evenodd">
        <g id="Android" transform="translate(-16.000000, -16.000000)">
            <g id="icon">
                <g id="Group" transform="translate(16.554667, 16.583111)">
                    <g id="a-link" fill="#2A56C6" fill-rule="nonzero">
                        <ellipse id="a" cx="494.876444" cy="493.226667" rx="494.876444" ry="493.226667"></ellipse>
                    </g>
                    <g id="Clipped">
                        <mask id="mask-2" fill="white">
                            <use xlink:href="#path-1"></use>
                        </mask>
                        <g id="a"></g>
                        <polyline id="Shape" fill="url(#linearGradient-3)" fill-rule="nonzero" mask="url(#mask-2)" points="534.243556 986.453333 236.202667 689.379556 736.711111 274.659556 989.781333 532.451556 989.781333 986.424889"></polyline>
                    </g>
                    <g fill-rule="nonzero" id="Shape">
                        <path d="M494.876444,5.03466667 C767.089778,5.03466667 988.103111,224.739556 989.809778,495.985778 L989.809778,493.226667 C989.809778,220.842667 768.227556,0 494.876444,0 C221.582222,0 0,220.842667 0,493.226667 L0,496.014222 C1.70666667,224.711111 222.151111,5.06311111 494.876444,5.06311111 L494.876444,5.03466667 Z" fill="#FFFFFF"></path>
                        <path d="M494.876444,981.390222 C767.089778,981.390222 988.103111,761.685333 989.809778,490.439111 L989.809778,493.226667 C989.809778,765.610667 768.227556,986.453333 494.876444,986.453333 C221.582222,986.453333 0,765.610667 0,493.226667 L0,490.382222 C1.70666667,761.685333 222.151111,981.390222 494.876444,981.390222 Z" fill="#263238"></path>
                    </g>
                    <path d="M652.344889,246.613333 L146.773333,246.613333 C128.796444,246.613333 117.532444,266.808889 127.658667,281.884444 L202.467556,397.368889 L202.467556,605.297778 C202.467556,679.310222 263.196444,739.84 337.408,739.84 L652.344889,739.84 C726.584889,739.84 787.313778,679.310222 787.313778,605.297778 L787.313778,381.155556 C787.313778,307.143111 726.442667,246.613333 652.202667,246.613333 L652.344889,246.613333 Z" id="Shape" fill="#F1F1F1" fill-rule="nonzero"></path>
                    <path d="M202.439111,397.368889 L127.630222,281.884444 C125.411556,279.125333 124.273778,275.768889 124.273778,272.384 C123.704889,277.447111 124.842667,283.050667 127.402667,287.516444 L202.211556,403.000889 L202.211556,397.368889 L202.439111,397.368889 Z M652.344889,739.84 L337.408,739.84 C263.168,739.84 202.439111,679.310222 202.439111,605.297778 L202.439111,610.929778 C202.439111,684.885333 263.196444,745.472 337.408,745.472 L652.344889,745.472 C726.584889,745.472 787.313778,684.885333 787.313778,610.929778 L787.313778,605.326222 C787.313778,679.566222 726.442667,739.868444 652.202667,739.868444 L652.344889,739.84 Z" id="Shape" fill="#000000" fill-rule="nonzero" opacity="0.1"></path>
                    <path d="M652.344889,246.613333 L146.773333,246.613333 C132.152889,246.613333 122.026667,259.498667 123.733333,272.384 C125.44,261.745778 134.4,252.188444 146.773333,252.188444 L652.344889,252.188444 C726.584889,252.188444 787.313778,312.775111 787.313778,386.730667 L787.313778,381.155556 C787.313778,307.143111 726.442667,246.613333 652.202667,246.613333 L652.344889,246.613333 Z" id="Shape" fill="#FFFFFF" fill-rule="nonzero" opacity="0.2"></path>
                    <path d="M674.844444,493.226667 C674.844444,511.715556 659.655111,526.848 641.109333,526.848 L348.444444,526.848 C329.870222,526.848 314.709333,511.715556 314.709333,493.226667 C314.709333,474.737778 329.870222,459.605333 348.444444,459.605333 L640.853333,459.605333 C659.427556,459.605333 674.616889,474.737778 674.616889,493.226667 L674.844444,493.226667 Z M539.875556,605.297778 C539.875556,623.786667 524.686222,638.947556 506.140444,638.947556 L348.672,638.947556 C330.097778,638.947556 314.936889,623.815111 314.936889,605.326222 C314.936889,586.837333 330.097778,571.761778 348.672,571.761778 L506.140444,571.761778 C524.686222,571.761778 539.875556,586.837333 539.875556,605.326222 L539.875556,605.297778 Z M674.844444,381.155556 C674.844444,399.644444 659.655111,414.72 641.109333,414.72 L348.444444,414.72 C329.870222,414.72 314.709333,399.644444 314.709333,381.155556 C314.709333,362.666667 329.870222,347.505778 348.444444,347.505778 L640.853333,347.505778 C659.427556,347.505778 674.616889,362.638222 674.616889,381.127111 L674.844444,381.155556 Z" id="Shape" fill="#BDBDBD" fill-rule="nonzero"></path>
                    <ellipse id="Oval" fill="url(#radialGradient-4)" fill-rule="nonzero" cx="494.876444" cy="493.226667" rx="494.876444" ry="493.226667"></ellipse>
                </g>
            </g>
        </g>
    </g>
</svg>